<svg xmlns="http://www.w3.org/2000/svg" viewBox="0 0 306.85 302.01"><defs><style>.cls-1{fill:#c8b6ff;}.cls-2{fill:#ccf;}</style></defs><g id="Layer_2" data-name="Layer 2"><g id="Layer_1-2" data-name="Layer 1"><polygon class="cls-1" points="306.85 269 297.32 285.5 287.79 302.01 278.26 285.5 268.74 269 259.21 252.5 249.68 236 240.16 219.5 230.63 203 221.11 186.5 144.9 186.5 135.38 170 125.85 153.5 202.05 153.5 192.53 137.01 183 120.5 173.48 104.01 183.01 87.5 192.53 71.01 202.05 87.5 211.58 104.01 221.11 120.5 230.63 137 240.16 153.5 249.68 170 259.21 186.5 268.74 203 278.26 219.5 287.79 236 297.32 252.5 306.85 269"/><polygon class="cls-1" points="186.48 33.01 176.95 49.5 167.42 66.01 157.9 82.5 148.38 99 138.85 115.5 129.32 132 119.8 148.5 100.74 148.5 110.27 165 100.74 181.5 91.22 198 81.69 214.5 72.16 231.01 62.64 247.5 53.11 264 43.59 280.5 34.06 297.01 24.53 280.5 15 264 34.06 231 43.58 214.5 53.11 198 62.64 181.5 72.16 165 81.69 148.5 91.22 132 100.74 115.5 110.27 99 119.79 82.5 129.32 66 138.85 49.5 148.37 33 157.9 16.5 167.42 0 176.95 16.5 186.48 33.01"/><polygon class="cls-2" points="291.85 269 282.32 285.5 272.79 302.01 263.26 285.5 253.74 269 244.21 252.5 234.68 236 225.16 219.5 215.63 203 206.11 186.5 129.9 186.5 120.38 170 110.85 153.5 187.05 153.5 177.53 137.01 168 120.5 158.48 104.01 168.01 87.5 177.53 71.01 187.05 87.5 196.58 104.01 206.11 120.5 215.63 137 225.16 153.5 234.68 170 244.21 186.5 253.74 203 263.26 219.5 272.79 236 282.32 252.5 291.85 269"/><polygon class="cls-2" points="171.48 33.01 161.95 49.5 152.42 66.01 142.9 82.5 133.38 99 123.85 115.5 114.32 132 104.8 148.5 85.74 148.5 95.27 165 85.74 181.5 76.22 198 66.69 214.5 57.16 231.01 47.64 247.5 38.11 264 28.59 280.5 19.06 297.01 9.53 280.5 0 264 19.06 231 28.58 214.5 38.11 198 47.64 181.5 57.16 165 66.69 148.5 76.22 132 85.74 115.5 95.27 99 104.79 82.5 114.32 66 123.85 49.5 133.37 33 142.9 16.5 152.42 0 161.95 16.5 171.48 33.01"/></g></g></svg>